<?xml version="1.0" standalone="no"?><!DOCTYPE svg PUBLIC "-//W3C//DTD SVG 1.1//EN" "http://www.w3.org/Graphics/SVG/1.1/DTD/svg11.dtd"><svg t="1621683581249" class="icon" viewBox="0 0 1024 1024" version="1.1" xmlns="http://www.w3.org/2000/svg" p-id="1335" xmlns:xlink="http://www.w3.org/1999/xlink" width="200" height="200"><defs><style type="text/css"></style></defs><path d="M0 0m85.333333 0l853.333334 0q85.333333 0 85.333333 85.333333l0 853.333334q0 85.333333-85.333333 85.333333l-853.333334 0q-85.333333 0-85.333333-85.333333l0-853.333334q0-85.333333 85.333333-85.333333Z" fill="#FF8040" p-id="1336"></path><path d="M693.333333 277.333333a32 32 0 0 1 32 32v448a32 32 0 0 1-32 32H330.666667a32 32 0 0 1-32-32V309.333333a32 32 0 0 1 32-32h362.666666zM512 640H384a10.666667 10.666667 0 0 0-10.666667 10.666667v21.333333a10.666667 10.666667 0 0 0 10.666667 10.666667h128a10.666667 10.666667 0 0 0 10.666667-10.666667v-21.333333a10.666667 10.666667 0 0 0-10.666667-10.666667z m128-117.333333H384a10.666667 10.666667 0 0 0-10.666667 10.666666v21.333334a10.666667 10.666667 0 0 0 10.666667 10.666666h256a10.666667 10.666667 0 0 0 10.666667-10.666666v-21.333334a10.666667 10.666667 0 0 0-10.666667-10.666666z m0-117.333334H384a10.666667 10.666667 0 0 0-10.666667 10.666667v21.333333a10.666667 10.666667 0 0 0 10.666667 10.666667h256a10.666667 10.666667 0 0 0 10.666667-10.666667v-21.333333a10.666667 10.666667 0 0 0-10.666667-10.666667z" fill="#FFFFFF" p-id="1337"></path><path d="M394.666667 234.666667a10.666667 10.666667 0 0 1 10.666666 10.666666v64a10.666667 10.666667 0 0 1-10.666666 10.666667h-21.333334a10.666667 10.666667 0 0 1-10.666666-10.666667v-64a10.666667 10.666667 0 0 1 10.666666-10.666666h21.333334z m128 0a10.666667 10.666667 0 0 1 10.666666 10.666666v64a10.666667 10.666667 0 0 1-10.666666 10.666667h-21.333334a10.666667 10.666667 0 0 1-10.666666-10.666667v-64a10.666667 10.666667 0 0 1 10.666666-10.666666h21.333334z m128 0a10.666667 10.666667 0 0 1 10.666666 10.666666v64a10.666667 10.666667 0 0 1-10.666666 10.666667h-21.333334a10.666667 10.666667 0 0 1-10.666666-10.666667v-64a10.666667 10.666667 0 0 1 10.666666-10.666666h21.333334z" fill="#FFBF9F" p-id="1338"></path></svg>